<?xml version="1.0" encoding="utf-8"?>
<!-- Generator: Adobe Illustrator 16.0.4, SVG Export Plug-In . SVG Version: 6.00 Build 0)  -->
<!DOCTYPE svg PUBLIC "-//W3C//DTD SVG 1.1//EN" "http://www.w3.org/Graphics/SVG/1.1/DTD/svg11.dtd">
<svg version="1.1" xmlns="http://www.w3.org/2000/svg" xmlns:xlink="http://www.w3.org/1999/xlink" x="0px" y="0px" width="108px"
	 height="144px" viewBox="0 0 108 144" enable-background="new 0 0 108 144" xml:space="preserve">
<g id="Icons">
	<g>
		<path d="M94.5,72h-0.763l-5.196,9H94.5c2.481,0,4.5,2.019,4.5,4.5V117H67.592c-3.375,4.458-8.699,7.155-14.369,7.155
			c-3.145,0-6.252-0.835-8.986-2.415L36.025,117H9v-15.602L5.263,99.24C3.157,98.023,1.396,96.44,0,94.62v35.88
			c0,7.445,6.056,13.5,13.5,13.5h81c7.444,0,13.5-6.055,13.5-13.5v-45C108,78.056,101.944,72,94.5,72z M99,130.5
			c0,2.482-2.019,4.5-4.5,4.5h-81c-2.481,0-4.5-2.018-4.5-4.5V126h90V130.5z"/>
		<path d="M7.514,95.343l38.973,22.501c2.051,1.183,4.381,1.809,6.74,1.809c0,0,0,0,0.001,0c4.812,0,9.295-2.587,11.698-6.751
			l40.499-70.147c1.804-3.123,2.284-6.761,1.351-10.244c-0.933-3.482-3.167-6.394-6.29-8.197l-38.971-22.5
			c-2.052-1.185-4.383-1.811-6.743-1.811c-4.813,0-9.296,2.587-11.699,6.751l-40.5,70.149C-1.148,83.345,1.067,91.617,7.514,95.343z
			 M10.367,81.403l40.5-70.151c0.801-1.387,2.297-2.25,3.904-2.25c0.793,0,1.548,0.203,2.243,0.604l38.971,22.501
			c1.041,0.601,1.786,1.571,2.096,2.731c0.311,1.16,0.151,2.373-0.45,3.414l-40.5,70.149c-0.801,1.388-2.297,2.25-3.903,2.25h0
			c-0.782,0-1.558-0.209-2.242-0.604l-38.971-22.5C9.866,86.307,9.126,83.55,10.367,81.403z"/>
		<rect x="51.234" y="65.622" transform="matrix(0.866 0.5001 -0.5001 0.866 43.5599 -18.2002)" width="9" height="13.089"/>
		<rect x="41.416" y="82.627" transform="matrix(0.866 0.5001 -0.5001 0.866 50.7463 -11.011)" width="9" height="13.09"/>
		<rect x="61.054" y="48.616" transform="matrix(0.866 0.5 -0.5 0.866 36.3643 -25.387)" width="9" height="13.09"/>
		<path d="M27.056,85.841c0.709,0.409,1.482,0.604,2.246,0.604c1.555,0,3.068-0.807,3.901-2.251l4.5-7.795
			c1.243-2.152,0.505-4.904-1.647-6.147c-2.153-1.242-4.904-0.504-6.147,1.647l-4.5,7.795
			C24.166,81.846,24.903,84.598,27.056,85.841z"/>
		<rect x="70.872" y="31.609" transform="matrix(0.866 0.5 -0.5 0.866 29.1766 -32.5747)" width="9" height="13.092"/>
	</g>
</g>
<g id="Description">
</g>
</svg>
