<?xml version="1.0" encoding="utf-8"?>
<!-- Generator: Adobe Illustrator 16.0.4, SVG Export Plug-In . SVG Version: 6.00 Build 0)  -->
<!DOCTYPE svg PUBLIC "-//W3C//DTD SVG 1.1//EN" "http://www.w3.org/Graphics/SVG/1.1/DTD/svg11.dtd">
<svg version="1.1" xmlns="http://www.w3.org/2000/svg" xmlns:xlink="http://www.w3.org/1999/xlink" x="0px" y="0px" width="108px"
	 height="144px" viewBox="0 0 108 144" enable-background="new 0 0 108 144" xml:space="preserve">
<g id="Icons">
	<g>
		<path d="M104.819,83.949c-6.021-11.833-19.056-16.409-26.291-18.083c-2.173-0.503-4.706-0.747-7.744-0.747
			c-4.78,0-10.108,0.619-14.809,1.167c-3.816,0.444-7.422,0.863-9.956,0.863c-0.337,0-0.646-0.007-0.924-0.022l-26.98-16.704v20.071
			L11.317,79.5H0v32h12l9.095,7.154L28.645,144h18.321l5.791-13.5h19.414l6.494,13.5h17.52l0.819-3.464
			c1.088-4.602,4.312-17.485,6.137-21.775C108.999,104.987,109.563,93.274,104.819,83.949z M94.859,115.239
			c-1.829,4.301-4.441,14.4-5.771,19.761h-4.765l-6.494-13.5H46.824L41.034,135h-5.679l-6.45-21.654L15.116,102.5H9v-14h6.799
			l11.317-14.992v-6.929l14.918,9.236l0.919,0.136c3.219,0.476,8.413-0.07,14.063-0.727c4.675-0.544,9.51-1.106,13.769-1.106
			c2.313,0,4.236,0.173,5.714,0.515c5.708,1.322,15.934,4.818,20.298,13.397C100.279,94.873,99.626,104.028,94.859,115.239z"/>
		<rect x="45" y="81" width="31.625" height="9"/>
		<polygon points="73.433,20.431 73.433,54.115 82.433,54.115 82.433,20.432 87.458,25.456 93.822,19.092 77.933,3.204 
			62.023,19.113 68.387,25.477 		"/>
		<polygon points="58.82,35.002 52.456,28.638 47.41,33.684 47.41,0 38.41,0 38.41,33.684 33.364,28.638 27,35.002 42.91,50.912 		
			"/>
	</g>
</g>
<g id="Description">
</g>
</svg>
