<?xml version="1.0" encoding="iso-8859-1"?>
<!-- Generator: Adobe Illustrator 15.1.0, SVG Export Plug-In . SVG Version: 6.00 Build 0)  -->
<!DOCTYPE svg PUBLIC "-//W3C//DTD SVG 1.1//EN" "http://www.w3.org/Graphics/SVG/1.1/DTD/svg11.dtd">
<svg version="1.1" id="Layer_1" xmlns="http://www.w3.org/2000/svg" xmlns:xlink="http://www.w3.org/1999/xlink" x="0px" y="0px"
	 width="108px" height="144px" viewBox="0 0 108 144" style="enable-background:new 0 0 108 144;" xml:space="preserve">
<g>
	<g>
		<path d="M76.08,72c0.668-4,0.177-6.682-1.375-9.499C72.82,59.062,69.63,57,66.163,57H47.087L31.663,72H0.006v62h35.397
			l5.488,6.646l19.911,3.338l0.579-0.169c0.815-0.083,3.633-0.453,5.4-1.168l17.358-6.241L87.577,134h20.429V72H76.08z M9.006,81h4
			v43h-4V81z M80.88,127.177l-1.115,0.477l-16.083,6.204c-0.373,0.145-1.498,0.362-2.559,0.497l-15.48-2.775l-3.819-4.842
			c-1.374-1.824-3.376-2.738-5.507-2.738H22.006V81h10.472c1.983,0,3.868-0.924,5.223-2.528L50.533,66h15.63
			c0.206,0,0.579,0.086,0.894,0.678c0.481,0.859,0.609,1.996,0.334,3.021c-0.167,0.59-0.353,1.117-0.569,1.667
			c-0.068,0.186-0.146,0.751-0.226,0.927C66.675,72.095,66.753,72,66.821,72H53.096L32.969,99.537l6.116,7.923
			c2.248,2.93,4.88,3.54,6.696,3.54h0.049c4.624,0,8.287-4.211,9.357-5.506L62.521,98h4.379c2.484,4,8.179,9.369,13.433,16.174
			c3.849,4.99,3.004,9.158,2.336,10.887L80.88,127.177z M87.006,108.814c0-0.104,0.095-0.218,0.015-0.32
			c-0.027-0.042,0.067-0.083,0.038-0.125c-7.178-9.29-14.821-17.66-15.146-18.021L70.67,89H59.026l-10.055,9.871l-0.354,0.357
			c-0.746,0.934-1.974,1.878-2.61,2.095c-0.021-0.02-0.04-0.071-0.069-0.103l-1.718-2.037L57.475,81h29.531V108.814z M99.006,124h-3
			V81h3V124z"/>
	</g>
</g>
</svg>
