<?xml version="1.0" encoding="UTF-8" standalone="no"?>
<svg width="22px" height="20px" viewBox="0 0 22 20" version="1.1" xmlns="http://www.w3.org/2000/svg" xmlns:xlink="http://www.w3.org/1999/xlink">
    <!-- Generator: Sketch 47.1 (45422) - http://www.bohemiancoding.com/sketch -->
    <title>icon</title>
    <desc>Created with Sketch.</desc>
    <defs></defs>
    <g id="Page-1" stroke="none" stroke-width="1" fill="none" fill-rule="evenodd">
        <g id="M-05-005_Teasers_ConsultationTeaser-XL" transform="translate(-282.000000, -463.000000)" fill-rule="nonzero" fill="#000000">
            <g id="icon" transform="translate(282.000000, 463.000000)">
                <path d="M3,12 L3,0 L18,0 L18,12 L3,12 Z M16.1889526,10.1246581 L16.1889526,1.87534186 L4.81104739,1.87534186 L4.81104739,10.1246581 L16.1889526,10.1246581 Z" id="Stroke-1"></path>
                <path d="M17.2562945,11.9500418 L4.74396628,11.9500418 L2.57292411,15.0499582 L19.4271478,15.0499582 L17.2562945,11.9500418 Z M21.2580188,17 L0.741958354,17 L0,15.4450639 L3.5367638,10.3951056 L4.27872216,10 L17.7215627,10 L18.4635438,10.3951382 L22,15.4450965 L21.2580188,17 Z" id="Stroke-3"></path>
                <polygon id="Stroke-5" points="7 5 13 5 13 3 7 3"></polygon>
                <polygon id="Stroke-6" points="7 8 10 8 10 6 7 6"></polygon>
                <polygon id="Stroke-7" points="0 20 22 20 22 18 0 18"></polygon>
            </g>
        </g>
    </g>
</svg>